# xmcd
#
# Track frame offsets:
#	150
#	13127
#	29559
#	45859
#	61716
#	83797
#	99446
#	117168
#	138333
#	154383
#	170084
#	187422
#	204308
#	222413
#	238125
#	256372
#	265835
#
# Disc length: 3747 seconds
#
# Revision: 1
# Processed by: cddbd v1.5.2PL0 Copyright (c) Steve Scherf et al.
# Submitted via: audiograbber 1.83.01
#
DISCID=f30ea111
DTITLE=Paula Fernandes - Ao Vivo (2011)
DYEAR=2011
DGENRE=Sertanejo
TTITLE0=Pássaro de Fogo
TTITLE1=Meu Eu Em Você
TTITLE2=Pra Você
TTITLE3=Tocando Em Frente - Part. Leonardo
TTITLE4=Amargurado - Sem Você - Ainda Ontem Chorei De Saudade
TTITLE5=Complicados Demais
TTITLE6=Voa
TTITLE7=Jeito De Mato
TTITLE8=Não Precisa - Part. Victor and Leo
TTITLE9=Navegar Em Mim
TTITLE10=Quando A Chuva Passar - Part. Marcus Vianna
TTITLE11=Sensações
TTITLE12=Quero Sim
TTITLE13=Pra Que Conversar?
TTITLE14=Costumes
TTITLE15=Seio De Minas
TTITLE16=Isso É Amar Você
EXTD=
EXTT0=
EXTT1=
EXTT2=
EXTT3=
EXTT4=
EXTT5=
EXTT6=
EXTT7=
EXTT8=
EXTT9=
EXTT10=
EXTT11=
EXTT12=
EXTT13=
EXTT14=
EXTT15=
EXTT16=
PLAYORDER=
